<svg xmlns="http://www.w3.org/2000/svg" width="96" height="96" viewBox="0 0 96 96">
    <defs>
        <linearGradient id="a" x1="4.209%" x2="97.99%" y1="50.185%" y2="50.185%">
            <stop offset="0%" stop-color="#141E30" stop-opacity=".2"/>
            <stop offset="100%" stop-color="#243B55" stop-opacity="0"/>
        </linearGradient>
        <linearGradient id="b" x1="0%" y1="0%" y2="100%">
            <stop offset="0%" stop-color="#E23E57"/>
            <stop offset="51.183%" stop-color="#CF2F3E"/>
            <stop offset="100%" stop-color="#BC2026"/>
        </linearGradient>
    </defs>
    <g fill="none" fill-rule="evenodd">
        <circle cx="48" cy="48" r="48" fill="#0B0A1A" fill-rule="nonzero" opacity=".05"/>
        <path fill-rule="nonzero" stroke="url(#a)" stroke-width="3" d="M94.496 47.383C94.166 21.986 73.476 1.5 48 1.5 22.319 1.5 1.5 22.319 1.5 48c0 25.475 20.486 46.166 45.883 46.496l47.113-47.113z"/>
        <g fill="url(#b)" transform="matrix(-1 0 0 1 72 26)">
            <path fill-rule="nonzero" d="M33.803 10.05c-.325 0-.633.072-.912.198l-3.714-3.714a2.212 2.212 0 0 0-2.012-3.121 2.212 2.212 0 0 0-1.888 3.357l-.439.439C22.913 2.989 18.654.047 13.72.047 6.985.047 1.507 5.527 1.507 12.26c0 .272.01.545.028.816A2.213 2.213 0 0 0 0 15.18a2.212 2.212 0 0 0 2.617 2.172 12.164 12.164 0 0 0 2.562 3.638.7.7 0 0 0 .994-.011.703.703 0 0 0-.01-.994 10.769 10.769 0 0 1-2.316-3.323 2.2 2.2 0 0 0 .34-2.467l4.296-4.297a2.196 2.196 0 0 0 1.916.027l4.725 4.725a.682.682 0 0 0 .041.037 2.212 2.212 0 0 0 2.002 3.143 2.212 2.212 0 0 0 2.057-3.017l5.018-5.02a10.8 10.8 0 0 1 .285 2.468c0 5.958-4.848 10.806-10.807 10.806-1.895 0-3.758-.497-5.39-1.438a.703.703 0 1 0-.702 1.219 12.211 12.211 0 0 0 6.092 1.626c6.734 0 12.213-5.48 12.213-12.213 0-1.257-.191-2.47-.545-3.612l.97-.97a2.197 2.197 0 0 0 1.86-.115l3.643 3.643a2.212 2.212 0 0 0 1.942 3.263c1.218 0 2.21-.991 2.21-2.21 0-1.218-.992-2.21-2.21-2.21zM2.21 15.985a.804.804 0 0 1 0-1.607.804.804 0 0 1 0 1.607zm7.259-7.26a.804.804 0 0 1 0-1.606.804.804 0 0 1 0 1.607zm7.698 7.7a.804.804 0 0 1 0-1.607.804.804 0 0 1 0 1.606zm1.148-2.692a2.197 2.197 0 0 0-2.184-.063l-.012-.014-4.699-4.698a2.212 2.212 0 0 0-1.951-3.245 2.212 2.212 0 0 0-1.98 3.19l-4.298 4.3a2.198 2.198 0 0 0-.246-.105 11.003 11.003 0 0 1-.032-.837c0-5.958 4.848-10.806 10.807-10.806 4.554 0 8.459 2.831 10.047 6.826l-5.452 5.452zm8.85-7.306a.804.804 0 0 1 0-1.607.804.804 0 0 1 0 1.607zm6.638 6.638a.804.804 0 0 1 0-1.607.804.804 0 0 1 0 1.607zM47.297 43.171h-.309V27.78a.703.703 0 1 0-1.406 0v15.392h-2.715V12.964h2.715v11.945a.703.703 0 1 0 1.406 0V12.26a.703.703 0 0 0-.703-.704h-4.121a.703.703 0 0 0-.703.704v30.91h-1.416V18.453a.703.703 0 0 0-.703-.703h-4.12a.703.703 0 0 0-.704.703V43.17h-1.415V23.74a.703.703 0 0 0-.703-.703h-4.122a.703.703 0 0 0-.703.703V43.17H26.16v-14.32a.703.703 0 0 0-.703-.702h-4.121a.703.703 0 0 0-.703.703v14.32h-1.416v-10.89a.703.703 0 0 0-.703-.704h-4.12a.703.703 0 0 0-.704.703v4.065a.703.703 0 1 0 1.406 0v-3.362h2.715v10.187h-2.715v-3.955a.703.703 0 1 0-1.406 0v3.955h-1.415v-10.89a.703.703 0 0 0-.703-.703H7.45a.703.703 0 0 0-.703.703v10.89H1.36a.703.703 0 1 0 0 1.406h45.937a.703.703 0 1 0 0-1.406zm-36.428 0H8.154V32.984h2.715v10.187zm13.885 0h-2.715V29.555h2.715V43.17zm6.943 0h-2.715V24.443h2.715V43.17zm6.942 0h-2.715V19.156h2.715V43.17z"/>
            <path d="M46.285 1.197a.703.703 0 0 0-.703.704v.154a.703.703 0 1 0 1.406 0v-.154a.703.703 0 0 0-.703-.704zM43.89 1.197a.703.703 0 0 0-.702.704v.154a.703.703 0 1 0 1.406 0v-.154a.703.703 0 0 0-.703-.704zM46.268 4.157H43.89a.703.703 0 1 0 0 1.406h2.377a.703.703 0 1 0 0-1.406zM46.268 6.426H39.93a.703.703 0 1 0 0 1.406h6.338a.703.703 0 1 0 0-1.406z"/>
        </g>
    </g>
</svg>
