<svg xmlns="http://www.w3.org/2000/svg" width="120" height="33" viewBox="0 0 120 33">
    <g fill="none" fill-rule="evenodd">
        <path fill="#FFF" d="M16.177 0h32.278v32.616H16.177z"/>
        <path fill="#DB0011" d="M64.595 16.347L48.455 0v32.655z"/>
        <path fill="#DB0011" d="M32.316 16.347L48.456 0H16.177zM0 16.347l16.177 16.308V0zM32.316 16.347L16.177 32.655h32.279z"/>
        <path fill="#000" d="M78.76 17.306H72.91v5.832h-2.924V9.478h2.924v5.602h5.848V9.478h2.925v13.66h-2.925zM88.747 23.407c-2.924 0-5.317-1.19-5.355-4.451h2.924c.038 1.458.874 2.34 2.469 2.34 1.177 0 2.544-.613 2.544-1.956 0-1.075-.911-1.382-2.43-1.842l-.988-.269c-2.126-.614-4.253-1.458-4.253-3.914 0-3.031 2.81-4.067 5.355-4.067 2.62 0 4.898.92 4.936 3.952h-2.924c-.114-1.228-.835-1.957-2.202-1.957-1.101 0-2.165.576-2.165 1.804 0 .997.912 1.304 2.81 1.918l1.14.345c2.316.73 3.797 1.535 3.797 3.838-.038 3.07-3 4.259-5.658 4.259z"/>
        <path fill="#000" fill-rule="nonzero" d="M96.038 9.516h4.709c.873-.038 1.785 0 2.658.154 1.633.383 2.886 1.458 2.886 3.3 0 1.765-1.101 2.647-2.696 3.07 1.823.345 3.19 1.266 3.19 3.3 0 3.108-3.038 3.798-5.393 3.798h-5.316l-.038-13.622zm4.709 5.68c1.291 0 2.62-.27 2.62-1.843 0-1.42-1.215-1.803-2.43-1.803h-2.05v3.645h1.86zm.266 5.909c1.367 0 2.696-.307 2.696-1.996 0-1.688-1.14-1.995-2.544-1.995h-2.317v3.99h2.165z"/>
        <path fill="#000" d="M114.38 23.407c-4.367 0-6.304-2.801-6.304-6.984 0-4.182 2.165-7.214 6.456-7.214 2.696 0 5.316 1.228 5.392 4.298h-3.038c-.152-1.381-1.063-2.072-2.354-2.072-2.659 0-3.456 2.878-3.456 5.065 0 2.187.797 4.72 3.342 4.72 1.329 0 2.316-.73 2.506-2.11h3.038c-.304 3.146-2.772 4.297-5.582 4.297z"/>
    </g>
</svg>
