<svg xmlns="http://www.w3.org/2000/svg" width="100" height="32" viewBox="0 0 100 32">
    <g fill="none" fill-rule="evenodd">
        <path fill="#EF3E42" d="M99.8 16.197L85.2 30.8 70.6 16.197 85.2 1.6z"/>
        <path fill="#0067B1" fill-rule="nonzero" d="M.2 32L3.422 9.391c.72-4.988 5.985-9.34 11.633-9.34 5.73 0 8.45 3.982 7.898 7.802l-.468 3.292c-.382 2.759-2.421 5.413-6.029 7.375l3.694 6.262c.425.689.595 1.75.425 2.868-.382 2.386-2.166 4.348-4.119 4.348-1.06 0-1.91-.581-2.418-1.484L8.6 21.12l-.933 6.582c-.34 2.389-2.125 4.298-4.035 4.298H.2zM13.102 4.722c-1.233 0-2.378 1.222-2.59 2.76l-.93 6.814c-.211 1.54.596 2.762 1.827 2.762 1.23 0 2.376-1.223 2.59-2.762l.93-6.814c.212-1.538-.597-2.76-1.827-2.76zm13.451.318C26.934 2.28 29.1 0 31.308 0c2.207 0 3.694 2.28 3.311 5.04l-1.57 11.41h4.375l1.612-11.41C39.417 2.28 41.584 0 43.793 0c2.207 0 3.693 2.28 3.31 5.04l-3.056 21.918C43.664 29.716 41.499 32 39.29 32c-2.207 0-3.693-2.284-3.312-5.042l.978-7.111H32.54l-.978 7.11C31.18 29.718 29.015 32 26.81 32h-3.994l3.738-26.96zm42.959 4.14c-.34 2.123-1.488 4.192-3.527 6.102 1.402 1.487 1.996 3.449 1.699 5.36l-.297 1.964c-.764 5.042-5.988 9.392-11.591 9.392H46.92L50.19 9.34c.725-4.989 5.99-9.34 11.634-9.34 5.732 0 8.493 3.98 7.897 7.801l-.208 1.378zm-10.915 7.165c-1.402 0-2.716 1.432-2.972 3.184l-.637 4.564c-.254 1.75.68 3.183 2.08 3.183 1.402 0 2.762-1.433 3.016-3.183l.637-4.564c.256-1.752-.724-3.184-2.124-3.184zm1.7-11.622c-1.401 0-2.676 1.433-2.974 3.184l-.508 3.131c-.3 1.752.68 3.183 2.08 3.183 1.402 0 2.717-1.431 3.016-3.183l.508-3.131c.298-1.75-.722-3.184-2.123-3.184z"/>
    </g>
</svg>
