<svg xmlns="http://www.w3.org/2000/svg" width="96" height="96" viewBox="0 0 96 96">
    <defs>
        <linearGradient id="a" x1="4.209%" x2="97.99%" y1="50.185%" y2="50.185%">
            <stop offset="0%" stop-color="#141E30" stop-opacity=".2"/>
            <stop offset="100%" stop-color="#243B55" stop-opacity="0"/>
        </linearGradient>
        <linearGradient id="b" x1="0%" y1="0%" y2="100%">
            <stop offset="0%" stop-color="#E23E57"/>
            <stop offset="51.183%" stop-color="#CF2F3E"/>
            <stop offset="100%" stop-color="#BC2026"/>
        </linearGradient>
    </defs>
    <g fill="none" fill-rule="evenodd">
        <circle cx="48" cy="48" r="48" fill="#0B0A1A" fill-rule="nonzero" opacity=".05"/>
        <path fill-rule="nonzero" stroke="url(#a)" stroke-width="3" d="M47.383 1.504C21.986 1.834 1.5 22.524 1.5 48c0 25.681 20.819 46.5 46.5 46.5 25.475 0 46.166-20.486 46.496-45.883L47.383 1.504z"/>
        <g fill="url(#b)" transform="translate(24 25)">
            <path fill-rule="nonzero" d="M32.753 25.892l-1.06-1.061-6.206 6.205a2.962 2.962 0 0 0-1.514-.426c-1.654 0-3 1.346-3 3 0 1.655 1.346 3 3 3 1.655 0 3-1.345 3-3 0-.554-.162-1.068-.425-1.514l6.205-6.204zm-8.78 9.219c-.827 0-1.5-.673-1.5-1.5 0-.828.673-1.5 1.5-1.5s1.5.672 1.5 1.5c0 .827-.673 1.5-1.5 1.5z"/>
            <path d="M16.473 39.611h15v1.5h-15zM19.473 42.611h9v1.5h-9z"/>
            <path fill-rule="nonzero" d="M23.973 14.86c-10.339 0-18.75 8.412-18.75 18.75 0 5.02 1.959 9.737 5.516 13.282l.22.218h26.028l.22-.218a18.623 18.623 0 0 0 5.516-13.282c0-10.338-8.411-18.75-18.75-18.75zm12.39 30.75h-24.78a17.13 17.13 0 0 1-4.86-12c0-9.512 7.738-17.25 17.25-17.25 9.511 0 17.25 7.738 17.25 17.25a17.13 17.13 0 0 1-4.86 12z"/>
            <path d="M23.973.086L16.5 10.36h3.723v3h1.5v-4.5h-2.277l4.527-6.224L28.5 8.86h-2.277v4.5h1.5v-3h3.723zM40.473 3.086L33 13.36h3.723v2.25h1.5v-3.75h-2.277l4.527-6.224L45 11.86h-2.277v12h1.5v-10.5h3.723zM7.473 3.086L0 13.36h3.723v10.5h1.5v-12H2.946l4.527-6.224L12 11.86H9.723v3.75h1.5v-2.25h3.723zM3.723 25.36h1.5v1.5h-1.5z"/>
            <path d="M9.723 17.11h1.5v1.5h-1.5zM36.723 17.11h1.5v1.5h-1.5zM42.723 25.36h1.5v1.5h-1.5zM29.973 42.611h1.5v1.5h-1.5zM16.473 42.611h1.5v1.5h-1.5z"/>
            <path d="M23.973 17.86c-8.685 0-15.75 7.066-15.75 15.75 0 3.426 1.096 6.696 3.172 9.452l1.198-.902a14.112 14.112 0 0 1-2.87-8.55c0-7.857 6.392-14.25 14.25-14.25s14.25 6.393 14.25 14.25c0 3.1-.992 6.055-2.87 8.549l1.199.902a15.603 15.603 0 0 0 3.171-9.45c0-8.685-7.065-15.75-15.75-15.75z"/>
        </g>
    </g>
</svg>
