<svg xmlns="http://www.w3.org/2000/svg" width="150" height="52" viewBox="0 0 150 52">
    <g fill="none" fill-rule="evenodd">
        <path fill="#000" d="M73.382 2.053h-3.554V0h9.31v2.053h-3.582v21.48h-2.174zM80.69 18.646V5.753h2.05V18.27c0 2.522.908 3.92 2.441 3.92 1.534 0 2.768-1.632 2.768-4.09V5.754H90v18.003h-2.05v-2.513c-.627 1.463-1.652 2.813-3.458 2.813-2.314 0-3.802-1.997-3.802-5.41zM93.62 5.95h2.022v2.472c.477-1.648 1.992-2.748 3.668-2.665V8.12h-.062c-2.049 0-3.579 1.364-3.579 4.295v11.118h-2.048V5.95zM101.38 6.026h2.043v2.462c.627-1.459 1.653-2.735 3.47-2.735 2.307 0 3.797 1.95 3.797 5.27v12.51h-2.044V11.37c0-2.452-.908-3.811-2.453-3.811-1.544 0-2.725 1.587-2.725 4.012v11.963h-2.043l-.046-17.507z"/>
        <path fill="#BC2026" d="M115.862 0h2.193v12.41L123.732 0h2.49l-5.073 10.458 5.575 13.075H124.3l-4.58-10.652-1.655 3.495v7.157h-2.193z"/>
        <path fill="#BC2026" fill-rule="nonzero" d="M127.759 15.246v-.444c0-6.014 2.34-9.05 5.053-9.05 2.714 0 4.774 3.137 4.774 8.754v1.314h-7.73c.14 4.238 1.865 6.228 4 6.228a5.265 5.265 0 0 0 3.124-1.11l.205 2.016a6.243 6.243 0 0 1-3.627 1.102c-3.086 0-5.8-2.99-5.8-8.81zm7.795-1.175c0-3.803-1.12-6.422-2.742-6.422-1.622 0-2.853 2.12-2.955 6.422h5.697z"/>
        <path fill="#BC2026" d="M143.814 23.605l-4.159-17.33h2.13l3.043 13.768 3.079-13.767H150l-5.275 21.964h-2.065z"/>
        <path fill="#BC2026" fill-rule="nonzero" d="M60.776 8.366c-5.563-7.7-15.66-10.474-24.313-6.682-8.653 3.793-13.553 13.14-11.799 22.509l8.51-6.25L43.81 32.78l-8.124 5.97c8.334 4.082 18.345 1.903 24.28-5.284 5.935-7.187 6.268-17.537.81-25.099zm-5.144 10.542a5.361 5.361 0 0 1-6.008.235 5.493 5.493 0 0 1-2.513-5.521 5.447 5.447 0 0 1 4.083-4.461 5.38 5.38 0 0 1 5.639 2.107c1.75 2.447 1.212 5.863-1.201 7.64z"/>
        <path fill="#000" d="M14.36 34.3l18.3-13.382 8.202 11.362-25.961 18.97L0 30.61l7.652-5.597zM72.931 25.625h2.217V47.62h5.542v2.061H72.93z"/>
        <path fill="#000" fill-rule="nonzero" d="M82.241 41.174v-.48c0-6.199 2.337-9.316 5.046-9.316 2.708 0 4.782 3.219 4.782 9v1.379h-7.717c.136 4.366 1.857 6.41 3.994 6.41a5.177 5.177 0 0 0 3.116-1.146l.208 2.081a6.13 6.13 0 0 1-3.623 1.1c-3.097 0-5.806-3.043-5.806-9.028zm7.79-1.212c0-3.913-1.114-6.614-2.717-6.614-1.604 0-2.872 2.183-2.962 6.614h5.679z"/>
        <path fill="#000" d="M94.655 31.688h2.152v2.529c.67-1.507 1.751-2.84 3.66-2.84 2.441 0 4.016 2.018 4.016 5.432v12.872h-2.161V37.184c0-2.53-.932-3.926-2.58-3.926-1.65 0-2.935 1.643-2.935 4.136V49.68h-2.152V31.688z"/>
        <path fill="#000" fill-rule="nonzero" d="M107.069 41.264v-.92c0-5.98 2.112-8.94 4.5-8.94 1.853 0 2.983 1.654 3.705 3.437v-9.216h2.14v24.23h-2.186V46.73c-.694 1.838-1.852 3.473-3.704 3.473-2.343 0-4.455-2.885-4.455-8.94zm8.242 0v-.92c0-4.428-1.518-6.909-3.148-6.909-1.63 0-2.945 2.509-2.945 7.02v.754c0 4.502 1.278 7.01 2.945 7.01 1.667 0 3.148-2.48 3.148-6.919v-.036zM120 41.174v-.48c0-6.199 2.337-9.316 5.045-9.316 2.708 0 4.783 3.219 4.783 9v1.379H122.1c.136 4.366 1.866 6.41 3.995 6.41a5.205 5.205 0 0 0 3.088-1.146l.2 2.081a6.121 6.121 0 0 1-3.623 1.1c-3.053 0-5.761-3.043-5.761-9.028zm7.79-1.212c0-3.913-1.114-6.614-2.718-6.614-1.603 0-2.844 2.183-2.943 6.614h5.66z"/>
        <path fill="#000" d="M132.414 31.592h2.232v2.543c.52-1.697 2.159-2.832 3.975-2.754v2.442h-.066c-2.223 0-3.909 1.413-3.909 4.432v11.426h-2.185l-.047-18.089z"/>
    </g>
</svg>
