<?xml version="1.0" encoding="UTF-8"?>
<svg width="48px" height="45px" viewBox="0 0 48 45" version="1.1" xmlns="http://www.w3.org/2000/svg" xmlns:xlink="http://www.w3.org/1999/xlink">
    <!-- Generator: Sketch 52.6 (67491) - http://www.bohemiancoding.com/sketch -->
    <title>report (2)</title>
    <desc>Created with Sketch.</desc>
    <defs>
        <linearGradient x1="0%" y1="0%" x2="100%" y2="100%" id="linearGradient-1">
            <stop stop-color="#E23E57" offset="0%"></stop>
            <stop stop-color="#CF2F3E" offset="51.1831647%"></stop>
            <stop stop-color="#BC2026" offset="100%"></stop>
        </linearGradient>
    </defs>
    <g id="final" stroke="none" stroke-width="1" fill="none" fill-rule="evenodd">
        <g id="new_landing_2.2" transform="translate(-618.000000, -919.000000)" fill="url(#linearGradient-1)">
            <g id="Group-4" transform="translate(594.000000, 893.000000)">
                <g id="report-(2)" transform="translate(48.000000, 48.500000) scale(-1, 1) translate(-48.000000, -48.500000) translate(24.000000, 26.000000)">
                    <path d="M33.8029688,10.05075 C33.4780313,10.05075 33.1695,10.1218125 32.8913438,10.248375 L29.1769688,6.534 C29.3035313,6.25584375 29.3745938,5.9473125 29.3745938,5.622375 C29.3745938,4.40390625 28.383375,3.4126875 27.1649063,3.4126875 C25.9464375,3.4126875 24.9552188,4.40390625 24.9552188,5.622375 C24.9552188,6.042375 25.0730625,6.435375 25.2773438,6.7700625 L24.8383125,7.209 C22.9130625,2.98828125 18.6535313,0.0474375 13.7198438,0.0474375 C6.9855,0.0474375 1.50675,5.5261875 1.50675,12.2604375 C1.50675,12.532125 1.51678125,12.8050312 1.5346875,13.0763437 C0.645375,13.3624687 0,14.1972188 0,15.1801875 C0,16.3986562 0.99121875,17.389875 2.2096875,17.389875 C2.34871875,17.3899687 2.48465625,17.3764687 2.6165625,17.3517187 C3.240375,18.71175 4.10053125,19.93425 5.17903125,20.9895937 C5.3158125,21.1234687 5.493375,21.1902187 5.67065625,21.1902187 C5.8531875,21.1902187 6.035625,21.119625 6.17325,20.9788125 C6.44484375,20.7013125 6.4400625,20.2560937 6.16246875,19.9845937 C5.180625,19.02375 4.4026875,17.9070937 3.84721875,16.662375 C4.202625,16.270125 4.41946875,15.7500937 4.41946875,15.1802812 C4.41946875,14.8261875 4.33528125,14.4915937 4.18659375,14.1945937 L8.48296875,9.89821875 C8.779875,10.0468125 9.1145625,10.131 9.46865625,10.131 C9.801,10.131 10.1161875,10.05675 10.3992188,9.92484375 L15.1242188,14.6498437 C15.1373438,14.6629687 15.151125,14.674875 15.165,14.6866875 C15.03225,14.970375 14.957625,15.2865937 14.957625,15.6199687 C14.957625,16.8384375 15.9488438,17.8296562 17.1673125,17.8296562 C18.3857813,17.8296562 19.377,16.8384375 19.377,15.6199687 C19.377,15.3350625 19.32225,15.0628125 19.223625,14.8125 L24.24225,9.793875 C24.4279688,10.5864375 24.5265938,11.4120937 24.5265938,12.2605312 C24.5265938,18.2194687 19.6786875,23.067375 13.7198438,23.067375 C11.8253438,23.067375 9.96159375,22.570125 8.32996875,21.6294375 C7.9935,21.4354687 7.56346875,21.5507812 7.3696875,21.8873437 C7.17571875,22.2238125 7.291125,22.65375 7.62759375,22.847625 C9.47259375,23.9114062 11.5791563,24.473625 13.7198438,24.473625 C20.4540938,24.473625 25.9328438,18.994875 25.9328438,12.2605312 C25.9328438,11.003625 25.7417813,9.79059375 25.3875938,8.648625 L26.3575313,7.6786875 C26.6078438,7.7773125 26.88,7.8320625 27.1649063,7.8320625 C27.5460938,7.8320625 27.9051563,7.73503125 28.2184688,7.5643125 L31.8610313,11.206875 C31.6903125,11.5201875 31.5932813,11.8791562 31.5932813,12.2604375 C31.5932813,13.4789062 32.5845,14.470125 33.8029688,14.470125 C35.0214375,14.470125 36.0126563,13.4789062 36.0126563,12.2604375 C36.0126563,11.0419687 35.0214375,10.05075 33.8029688,10.05075 Z M2.2096875,15.983625 C1.76671875,15.983625 1.40625,15.62325 1.40625,15.1801875 C1.40625,14.737125 1.76671875,14.37675 2.2096875,14.37675 C2.65265625,14.37675 3.013125,14.7372188 3.013125,15.1801875 C3.013125,15.6231563 2.65265625,15.983625 2.2096875,15.983625 Z M9.46865625,8.72475 C9.0256875,8.72475 8.66521875,8.36428125 8.66521875,7.9213125 C8.66521875,7.47825 9.0256875,7.11796875 9.46865625,7.11796875 C9.911625,7.11796875 10.272,7.47834375 10.272,7.9213125 C10.272,8.36428125 9.911625,8.72475 9.46865625,8.72475 Z M17.1672187,16.4234062 C16.7241563,16.4234062 16.3637812,16.0629375 16.3637812,15.6199687 C16.3637812,15.177 16.72425,14.8165313 17.1672187,14.8165313 C17.6101875,14.8165313 17.9706562,15.177 17.9706562,15.6199687 C17.9706563,16.0629375 17.6102812,16.4234062 17.1672187,16.4234062 Z M18.3149062,13.7322188 C17.9802187,13.5280313 17.5872187,13.4101875 17.1673125,13.4101875 C16.7929688,13.4101875 16.4402812,13.5040313 16.131,13.6690312 C16.1267813,13.6645312 16.1230312,13.65975 16.118625,13.6553438 L11.4199687,8.95659375 C11.5845937,8.6475 11.6783437,8.2951875 11.6783437,7.92121875 C11.6783437,6.70284375 10.687125,5.711625 9.46875,5.711625 C8.25028125,5.711625 7.2590625,6.70284375 7.2590625,7.92121875 C7.2590625,8.273625 7.34240625,8.60671875 7.4896875,8.90259375 L3.19115625,13.201125 C3.11165625,13.1614688 3.0294375,13.1265938 2.944875,13.0965938 C2.9236875,12.8191875 2.91290625,12.5390625 2.91290625,12.2604375 C2.9128125,6.30159375 7.7608125,1.4536875 13.71975,1.4536875 C18.2738437,1.4536875 22.1787187,4.2853125 23.7669375,8.28028125 L18.3149062,13.7322188 Z M27.1648125,6.4258125 C26.7218437,6.4258125 26.361375,6.06534375 26.361375,5.622375 C26.361375,5.17940625 26.72175,4.8189375 27.1648125,4.8189375 C27.607875,4.8189375 27.96825,5.17940625 27.96825,5.622375 C27.96825,6.06534375 27.6077813,6.4258125 27.1648125,6.4258125 Z M33.802875,13.063875 C33.3599062,13.063875 32.9994375,12.7034062 32.9994375,12.2604375 C32.9994375,11.8174687 33.3599063,11.457 33.802875,11.457 C34.2459375,11.457 34.6063125,11.8174687 34.6063125,12.2604375 C34.6063125,12.7034062 34.2458437,13.063875 33.802875,13.063875 Z" id="Shape" fill-rule="nonzero"></path>
                    <path d="M47.296875,43.1713125 L46.9879687,43.1713125 L46.9879687,27.7789688 C46.9879687,27.3905625 46.67325,27.0758438 46.2848438,27.0758438 C45.8964375,27.0758438 45.5817188,27.3905625 45.5817188,27.7789688 L45.5817188,43.1713125 L42.8668125,43.1713125 L42.8668125,12.9636562 L45.5817188,12.9636562 L45.5817188,24.908625 C45.5817188,25.2970312 45.8964375,25.61175 46.2848438,25.61175 C46.67325,25.61175 46.9879687,25.2970312 46.9879687,24.908625 L46.9879687,12.2605312 C46.9879687,11.872125 46.67325,11.5574062 46.2848438,11.5574062 L42.1636875,11.5574062 C41.7752813,11.5574062 41.4605625,11.872125 41.4605625,12.2605312 L41.4605625,43.1713125 L40.0453125,43.1713125 L40.0453125,18.452625 C40.0453125,18.0642188 39.7305937,17.7495 39.3421875,17.7495 L35.221125,17.7495 C34.8327188,17.7495 34.518,18.0642188 34.518,18.452625 L34.518,43.1713125 L33.10275,43.1713125 L33.10275,23.73975 C33.10275,23.3513438 32.7880312,23.036625 32.399625,23.036625 L28.2784688,23.036625 C27.8900625,23.036625 27.5753437,23.3513438 27.5753437,23.73975 L27.5753437,43.1713125 L26.1600937,43.1713125 L26.1600937,28.8516562 C26.1600937,28.46325 25.845375,28.1485313 25.4569688,28.1485313 L21.3358125,28.1485313 C20.9474063,28.1485313 20.6326875,28.46325 20.6326875,28.8516562 L20.6326875,43.1712187 L19.2174375,43.1712187 L19.2174375,32.2813125 C19.2174375,31.8929063 18.9027188,31.5781875 18.5143125,31.5781875 L14.3931562,31.5781875 C14.00475,31.5781875 13.6900312,31.8929063 13.6900312,32.2813125 L13.6900312,36.3460313 C13.6900312,36.7344375 14.00475,37.0491563 14.3931562,37.0491563 C14.7815625,37.0491563 15.0962813,36.7344375 15.0962813,36.3460313 L15.0962813,32.9844375 L17.8111875,32.9844375 L17.8111875,43.1712188 L15.0962813,43.1712188 L15.0962813,39.216375 C15.0962813,38.8279688 14.7815625,38.51325 14.3931562,38.51325 C14.00475,38.51325 13.6900312,38.8279688 13.6900312,39.216375 L13.6900312,43.1712188 L12.2747813,43.1712188 L12.2747813,32.2813125 C12.2747813,31.8929063 11.9600625,31.5781875 11.5716563,31.5781875 L7.45078125,31.5781875 C7.062375,31.5781875 6.74765625,31.8929063 6.74765625,32.2813125 L6.74765625,43.1712188 L1.36021875,43.1712188 C0.9718125,43.1712188 0.65709375,43.4859375 0.65709375,43.8743438 C0.65709375,44.26275 0.9718125,44.5774688 1.36021875,44.5774688 L47.296875,44.5774688 L47.296875,44.5775625 C47.6852812,44.5775625 48,44.2628437 48,43.8744375 C48,43.4860313 47.6852812,43.1713125 47.296875,43.1713125 Z M10.8687188,43.1712187 L8.15390625,43.1712187 L8.15390625,32.9844375 L10.8687188,32.9844375 L10.8687188,43.1712187 Z M24.7539375,43.1712187 L22.0390313,43.1712187 L22.0390313,29.5547812 L24.7539375,29.5547812 L24.7539375,43.1712187 Z M31.6965937,43.1713125 L28.9816875,43.1713125 L28.9816875,24.442875 L31.6965937,24.442875 L31.6965937,43.1713125 Z M38.6390625,43.1713125 L35.92425,43.1713125 L35.92425,19.15575 L38.6390625,19.15575 L38.6390625,43.1713125 Z" id="Shape" fill-rule="nonzero"></path>
                    <path d="M46.2848438,1.19746875 C45.8964375,1.19746875 45.5817188,1.5121875 45.5817188,1.90059375 L45.5817188,2.0551875 C45.5817188,2.44359375 45.8965313,2.7583125 46.2848438,2.7583125 C46.67325,2.7583125 46.9879688,2.44359375 46.9879688,2.0551875 L46.9879688,1.90059375 C46.9879688,1.5121875 46.67325,1.19746875 46.2848438,1.19746875 Z" id="Path"></path>
                    <path d="M43.8908438,1.19746875 C43.5024375,1.19746875 43.1877188,1.5121875 43.1877188,1.90059375 L43.1877188,2.0551875 C43.1877188,2.44359375 43.5024375,2.7583125 43.8908438,2.7583125 C44.27925,2.7583125 44.5939688,2.44359375 44.5939688,2.0551875 L44.5939688,1.90059375 C44.5939688,1.5121875 44.27925,1.19746875 43.8908438,1.19746875 Z" id="Path"></path>
                    <path d="M46.2676875,4.15678125 L43.8908438,4.15678125 C43.5024375,4.15678125 43.1877188,4.4715 43.1877188,4.85990625 C43.1877188,5.2483125 43.5024375,5.56303125 43.8908438,5.56303125 L46.2676875,5.56303125 C46.6560937,5.56303125 46.9708125,5.2483125 46.9708125,4.85990625 C46.9708125,4.4715 46.6560938,4.15678125 46.2676875,4.15678125 Z" id="Path"></path>
                    <path d="M46.2675938,6.4258125 L39.929625,6.4258125 C39.5412188,6.4258125 39.2265,6.74053125 39.2265,7.1289375 C39.2265,7.51734375 39.5412188,7.8320625 39.929625,7.8320625 L46.2675938,7.8320625 C46.656,7.8320625 46.9707188,7.51734375 46.9707188,7.1289375 C46.9707188,6.74053125 46.656,6.4258125 46.2675938,6.4258125 Z" id="Path"></path>
                </g>
            </g>
        </g>
    </g>
</svg>