<svg xmlns="http://www.w3.org/2000/svg" width="96" height="96" viewBox="0 0 96 96">
    <defs>
        <linearGradient id="a" x1="4.209%" x2="97.99%" y1="50.185%" y2="50.185%">
            <stop offset="0%" stop-color="#141E30" stop-opacity=".2"/>
            <stop offset="100%" stop-color="#243B55" stop-opacity="0"/>
        </linearGradient>
        <linearGradient id="b" x1="0%" y1="0%" y2="100%">
            <stop offset="0%" stop-color="#E23E57"/>
            <stop offset="51.183%" stop-color="#CF2F3E"/>
            <stop offset="100%" stop-color="#BC2026"/>
        </linearGradient>
    </defs>
    <g fill="none" fill-rule="evenodd">
        <circle cx="48" cy="48" r="48" fill="#0B0A1A" fill-rule="nonzero" opacity=".05"/>
        <path fill-rule="nonzero" stroke="url(#a)" stroke-width="3" d="M48.617 94.496C74.014 94.166 94.5 73.476 94.5 48 94.5 22.319 73.681 1.5 48 1.5 22.525 1.5 1.834 21.986 1.504 47.383l47.113 47.113z"/>
        <g fill="url(#b)" transform="translate(24 24)">
            <path d="M10.02 42.987h1.549v1.548H10.02zM13.117 42.987h1.548v1.548h-1.548zM16.214 42.987h1.548v1.548h-1.548z"/>
            <path fill-rule="nonzero" d="M39.44 35.245H37.89V30.6h-3.097v-5.438a3.848 3.848 0 0 0-2.758-3.708l-4.983-1.495v-1.176a5.415 5.415 0 0 0 2.322-4.442V12.02a5.426 5.426 0 0 0-5.42-5.42 5.426 5.426 0 0 0-5.419 5.42v2.322c0 1.837.92 3.46 2.323 4.442v1.176l-4.983 1.495a3.847 3.847 0 0 0-2.759 3.708V30.6H10.02v4.645H8.472v4.645H6.924v7.742h34.064V39.89H39.44v-4.645zM20.085 14.34V12.02a3.876 3.876 0 0 1 3.87-3.871 3.875 3.875 0 0 1 3.872 3.87v2.323a3.875 3.875 0 0 1-3.871 3.871 3.875 3.875 0 0 1-3.871-3.87zm3.87 5.42c.54 0 1.058-.081 1.55-.228v.788c-.193.297-.726.988-1.55.988-.822 0-1.356-.691-1.548-.988v-.788c.491.147 1.01.228 1.549.228zm-9.29 5.401c0-1.034.665-1.927 1.656-2.225l4.985-1.495c.45.585 1.322 1.416 2.65 1.416 1.328 0 2.2-.83 2.65-1.416l4.985 1.495a2.308 2.308 0 0 1 1.655 2.225V30.6H30.15v-5.42h-1.548v5.42h-9.29v-5.42h-1.549v5.42h-3.097v-5.438zm-3.096 6.986h24.774v3.097H11.569v-3.097zm-1.549 4.645h27.871v3.097h-27.87v-3.097zm29.42 9.29H8.472v-4.645H39.44v4.645z"/>
            <path d="M6.924 15.116h1.548V6.6H6.307l3.713-4.244L13.733 6.6H11.57v5.419h1.548V8.148h4.029L10.02.004 2.895 8.148h4.029zM11.569 13.567h1.548v1.549H11.57zM11.569 16.664h1.548v1.548H11.57zM43.31 39.89h1.549v1.548h-1.548zM43.31 36.793h1.549v1.548h-1.548zM42.536 16.88l-5.375 7.526h3.053v5.42h1.548v-6.968H40.17l2.366-3.313 2.367 3.313h-1.592v12.387h1.548V24.406h3.053zM3.053 39.89H4.6v1.548H3.053zM3.053 36.793H4.6v1.548H3.053zM6.15 29.825h1.548v-5.419h3.053L5.375 16.88 0 24.406h3.053v10.839H4.6V22.858H3.009l2.366-3.313 2.367 3.313H6.149zM34.794 12.019h1.549v-5.42h-2.165l3.713-4.243L41.604 6.6H39.44v8.516h1.548V8.148h4.029L37.891.004l-7.126 8.144h4.03zM34.794 13.567h1.549v1.549h-1.549zM34.794 16.664h1.549v1.548h-1.549z"/>
        </g>
    </g>
</svg>
