<svg xmlns="http://www.w3.org/2000/svg" width="129" height="114" viewBox="0 0 129 114">
    <defs>
        <filter id="a" width="186%" height="201.2%" x="-43%" y="-50.6%" filterUnits="objectBoundingBox">
            <feOffset dy="7" in="SourceAlpha" result="shadowOffsetOuter1"/>
            <feGaussianBlur in="shadowOffsetOuter1" result="shadowBlurOuter1" stdDeviation="7.5"/>
            <feColorMatrix in="shadowBlurOuter1" result="shadowMatrixOuter1" values="0 0 0 0 0.0666666667 0 0 0 0 0.0666666667 0 0 0 0 0.109803922 0 0 0 0.1 0"/>
            <feMerge>
                <feMergeNode in="shadowMatrixOuter1"/>
                <feMergeNode in="SourceGraphic"/>
            </feMerge>
        </filter>
    </defs>
    <g fill="#FFF" fill-rule="nonzero" filter="url(#a)" transform="translate(15 8)">
        <path d="M34.55 0H11.515C8.317 0 5.598 1.12 3.358 3.359 1.12 5.598 0 8.317 0 11.516v23.032c0 3.2 1.12 5.918 3.358 8.157 2.24 2.239 4.96 3.359 8.158 3.359h13.436c1.599 0 2.959.56 4.078 1.68 1.12 1.118 1.68 2.478 1.68 4.078v1.919c0 4.239-1.5 7.856-4.499 10.856-2.999 2.998-6.617 4.498-10.856 4.498h-3.839c-1.04 0-1.94.38-2.7 1.14-.759.759-1.139 1.659-1.139 2.699v7.678c0 1.038.38 1.94 1.14 2.7.76.758 1.659 1.14 2.7 1.14h3.838c4.159 0 8.128-.812 11.907-2.43 3.778-1.62 7.047-3.81 9.806-6.569 2.759-2.76 4.948-6.027 6.568-9.806 1.619-3.78 2.429-7.748 2.429-11.906V11.516c0-3.2-1.12-5.919-3.359-8.158C40.467 1.12 37.748 0 34.55 0zM95.704 3.359C93.466 1.119 90.746 0 87.547 0H64.515c-3.2 0-5.918 1.12-8.157 3.359C54.119 5.599 53 8.317 53 11.516v23.032c0 3.2 1.12 5.918 3.358 8.157 2.239 2.239 4.958 3.359 8.157 3.359h13.436c1.599 0 2.96.56 4.079 1.68 1.119 1.119 1.68 2.478 1.68 4.078v1.919c0 4.239-1.5 7.856-4.5 10.856-2.998 2.998-6.616 4.498-10.856 4.498h-3.839c-1.04 0-1.94.38-2.699 1.14-.76.759-1.14 1.659-1.14 2.699v7.678c0 1.038.38 1.94 1.14 2.7.76.758 1.66 1.14 2.7 1.14h3.838c4.159 0 8.127-.812 11.907-2.43 3.778-1.62 7.046-3.81 9.805-6.569 2.76-2.76 4.95-6.028 6.569-9.806 1.619-3.778 2.429-7.748 2.429-11.906V11.516c0-3.2-1.12-5.919-3.36-8.157z"/>
    </g>
</svg>
