<svg xmlns="http://www.w3.org/2000/svg" width="16" height="16" viewBox="0 0 16 16">
    <path fill="#BC2026" fill-rule="evenodd" d="M15.968 12.626a.774.774 0 0 1-.237.678l-2.25 2.236a1.266 1.266 0 0 1-.397.288 1.64 1.64 0 0 1-.482.153l-.101.008c-.057.006-.13.009-.22.009-.214 0-.561-.037-1.04-.11-.48-.074-1.066-.255-1.759-.543-.693-.288-1.48-.72-2.36-1.296-.879-.575-1.814-1.366-2.807-2.371-.789-.78-1.443-1.525-1.961-2.237a15.937 15.937 0 0 1-1.252-1.973 10.64 10.64 0 0 1-.71-1.644 8.73 8.73 0 0 1-.322-1.27 4.203 4.203 0 0 1-.067-.839C.014 3.512.02 3.4.02 3.376c.022-.158.073-.319.152-.482a1.27 1.27 0 0 1 .287-.398L2.71.242a.744.744 0 0 1 .54-.237.63.63 0 0 1 .39.127c.113.085.208.19.287.314l1.81 3.439c.101.18.13.378.085.593-.046.214-.141.395-.288.542l-.829.83a.283.283 0 0 0-.059.11.419.419 0 0 0-.025.127c.045.237.146.508.304.813.135.271.344.602.626.991.282.39.682.839 1.2 1.347.508.52.959.923 1.354 1.211.394.288.724.5.989.636.265.135.468.217.609.245l.211.043c.023 0 .06-.009.11-.026a.282.282 0 0 0 .11-.06l.964-.982c.203-.18.44-.27.71-.27.192 0 .344.033.457.101h.017l3.264 1.931c.237.147.378.333.423.56z"/>
</svg>
