<?xml version="1.0" encoding="UTF-8"?>
<svg width="48px" height="48px" viewBox="0 0 48 48" version="1.1" xmlns="http://www.w3.org/2000/svg" xmlns:xlink="http://www.w3.org/1999/xlink">
    <!-- Generator: Sketch 52.6 (67491) - http://www.bohemiancoding.com/sketch -->
    <title>speed (2)</title>
    <desc>Created with Sketch.</desc>
    <defs>
        <linearGradient x1="0%" y1="0%" x2="100%" y2="100%" id="linearGradient-1">
            <stop stop-color="#E23E57" offset="0%"></stop>
            <stop stop-color="#CF2F3E" offset="51.1831647%"></stop>
            <stop stop-color="#BC2026" offset="100%"></stop>
        </linearGradient>
    </defs>
    <g id="final" stroke="none" stroke-width="1" fill="none" fill-rule="evenodd">
        <g id="new_landing_2.2" transform="translate(-236.000000, -918.000000)" fill="url(#linearGradient-1)">
            <g id="Group-6" transform="translate(212.000000, 893.000000)">
                <g id="speed-(2)" transform="translate(24.000000, 25.000000)">
                    <path d="M32.75325,25.8915 L31.69275,24.831 L25.48725,31.03575 C25.041,30.77175 24.52725,30.6105 23.973,30.6105 C22.3185,30.6105 20.973,31.956 20.973,33.6105 C20.973,35.265 22.3185,36.6105 23.973,36.6105 C25.6275,36.6105 26.973,35.265 26.973,33.6105 C26.973,33.0555 26.811,32.5425 26.54775,32.09625 L32.75325,25.8915 Z M23.973,35.1105 C23.14575,35.1105 22.473,34.43775 22.473,33.6105 C22.473,32.78325 23.14575,32.1105 23.973,32.1105 C24.80025,32.1105 25.473,32.78325 25.473,33.6105 C25.473,34.43775 24.80025,35.1105 23.973,35.1105 Z" id="Shape" fill-rule="nonzero"></path>
                    <rect id="Rectangle" x="16.473" y="39.6105" width="15" height="1.5"></rect>
                    <rect id="Rectangle" x="19.473" y="42.6105" width="9" height="1.5"></rect>
                    <path d="M23.973,14.8605 C13.63425,14.8605 5.223,23.27175 5.223,33.6105 C5.223,38.63025 7.182,43.347 10.7385,46.8915 L10.95825,47.1105 L36.987,47.1105 L37.20675,46.8915 C40.764,43.347 42.723,38.63025 42.723,33.6105 C42.723,23.27175 34.31175,14.8605 23.973,14.8605 Z M36.36375,45.6105 L11.58225,45.6105 C8.4465,42.37575 6.723,38.12625 6.723,33.6105 C6.723,24.09825 14.4615,16.3605 23.973,16.3605 C33.4845,16.3605 41.223,24.09825 41.223,33.6105 C41.223,38.12625 39.4995,42.37575 36.36375,45.6105 Z" id="Shape" fill-rule="nonzero"></path>
                    <polygon id="Path" points="23.973 0.0855 16.5 10.3605 20.223 10.3605 20.223 13.3605 21.723 13.3605 21.723 8.8605 19.446 8.8605 23.973 2.6355 28.5 8.8605 26.223 8.8605 26.223 13.3605 27.723 13.3605 27.723 10.3605 31.446 10.3605"></polygon>
                    <polygon id="Path" points="40.473 3.0855 33 13.3605 36.723 13.3605 36.723 15.6105 38.223 15.6105 38.223 11.8605 35.946 11.8605 40.473 5.6355 45 11.8605 42.723 11.8605 42.723 23.8605 44.223 23.8605 44.223 13.3605 47.946 13.3605"></polygon>
                    <polygon id="Path" points="7.473 3.0855 0 13.3605 3.723 13.3605 3.723 23.8605 5.223 23.8605 5.223 11.8605 2.946 11.8605 7.473 5.6355 12 11.8605 9.723 11.8605 9.723 15.6105 11.223 15.6105 11.223 13.3605 14.946 13.3605"></polygon>
                    <rect id="Rectangle" x="3.723" y="25.3605" width="1.5" height="1.5"></rect>
                    <rect id="Rectangle" x="9.723" y="17.1105" width="1.5" height="1.5"></rect>
                    <rect id="Rectangle" x="36.723" y="17.1105" width="1.5" height="1.5"></rect>
                    <rect id="Rectangle" x="42.723" y="25.3605" width="1.5" height="1.5"></rect>
                    <rect id="Rectangle" x="29.973" y="42.6105" width="1.5" height="1.5"></rect>
                    <rect id="Rectangle" x="16.473" y="42.6105" width="1.5" height="1.5"></rect>
                    <path d="M23.973,17.8605 C15.288,17.8605 8.223,24.92625 8.223,33.6105 C8.223,37.0365 9.3195,40.30575 11.39475,43.062 L12.59325,42.15975 C10.71525,39.66525 9.723,36.7095 9.723,33.6105 C9.723,25.75275 16.11525,19.3605 23.973,19.3605 C31.83075,19.3605 38.223,25.75275 38.223,33.6105 C38.223,36.7095 37.23075,39.66525 35.3535,42.159 L36.552,43.06125 C38.6265,40.30575 39.723,37.0365 39.723,33.6105 C39.723,24.92625 32.658,17.8605 23.973,17.8605 Z" id="Path"></path>
                </g>
            </g>
        </g>
    </g>
</svg>