<?xml version="1.0" encoding="UTF-8"?>
<svg width="48px" height="48px" viewBox="0 0 48 48" version="1.1" xmlns="http://www.w3.org/2000/svg" xmlns:xlink="http://www.w3.org/1999/xlink">
    <!-- Generator: Sketch 52.6 (67491) - http://www.bohemiancoding.com/sketch -->
    <title>career (2)</title>
    <desc>Created with Sketch.</desc>
    <defs>
        <linearGradient x1="0%" y1="0%" x2="100%" y2="100%" id="linearGradient-1">
            <stop stop-color="#E23E57" offset="0%"></stop>
            <stop stop-color="#CF2F3E" offset="51.1831647%"></stop>
            <stop stop-color="#BC2026" offset="100%"></stop>
        </linearGradient>
    </defs>
    <g id="final" stroke="none" stroke-width="1" fill="none" fill-rule="evenodd">
        <g id="new_landing_2.2" transform="translate(-996.000000, -917.000000)" fill="url(#linearGradient-1)">
            <g id="Group-2" transform="translate(972.000000, 893.000000)">
                <g id="career-(2)" transform="translate(24.000000, 24.000000)">
                    <polygon id="Path" points="10.0202873 42.9866431 11.5686744 42.9866431 11.5686744 44.5350302 10.0202873 44.5350302"></polygon>
                    <polygon id="Path" points="13.1170615 42.9866431 14.6654486 42.9866431 14.6654486 44.5350302 13.1170615 44.5350302"></polygon>
                    <polygon id="Path" points="16.2138357 42.9866431 17.7622228 42.9866431 17.7622228 44.5350302 16.2138357 44.5350302"></polygon>
                    <path d="M39.4396422,35.2447076 L37.8912551,35.2447076 L37.8912551,30.5995463 L34.7944809,30.5995463 L34.7944809,25.1624244 C34.7944809,23.4390121 33.6861139,21.9495968 32.0360383,21.454007 L27.0525454,19.9589214 L27.0525454,18.7825101 C28.4546371,17.8015373 29.375126,16.1779234 29.375126,14.3414818 L29.375126,12.0189012 C29.375126,9.03137603 26.9432963,6.59954632 23.9557712,6.59954632 C20.968246,6.59954632 18.5364164,9.03137603 18.5364164,12.0189012 L18.5364164,14.3414818 C18.5364164,16.1779234 19.4569053,17.8015373 20.858997,18.7825101 L20.858997,19.9589214 L15.875504,21.454007 C14.2258065,21.9488408 13.1170615,23.4390121 13.1170615,25.1624244 L13.1170615,30.5995463 L10.0202873,30.5995463 L10.0202873,35.2447076 L8.47190023,35.2447076 L8.47190023,39.8898689 L6.92351313,39.8898689 L6.92351313,47.6318044 L40.9880293,47.6318044 L40.9880293,39.8898689 L39.4396422,39.8898689 L39.4396422,35.2447076 Z M20.0848035,14.3414818 L20.0848035,12.0189012 C20.0848035,9.88457661 21.8214465,8.14793342 23.9557712,8.14793342 C26.0904737,8.14793342 27.8267389,9.88457661 27.8267389,12.0189012 L27.8267389,14.3414818 C27.8267389,16.4761845 26.0904737,18.2124495 23.9557712,18.2124495 C21.8214465,18.2124495 20.0848035,16.4761845 20.0848035,14.3414818 Z M23.9557712,19.7608366 C24.4940776,19.7608366 25.0134828,19.6795615 25.5041583,19.5325101 L25.5041583,20.3214465 C25.312122,20.6178175 24.7787298,21.3092237 23.9557712,21.3092237 C23.1328125,21.3092237 22.5994204,20.6178175 22.4073841,20.3214465 L22.4073841,19.5325101 C22.8984375,19.6795615 23.4178427,19.7608366 23.9557712,19.7608366 Z M14.6654486,25.1624244 C14.6654486,24.1281502 15.3303931,23.234879 16.3208166,22.937374 L21.3058215,21.4415323 C21.7564264,22.0270917 22.6281502,22.8576108 23.9557712,22.8576108 C25.2837702,22.8576108 26.155494,22.0270917 26.6060988,21.4415323 L31.5911038,22.937374 C32.5811492,23.234123 33.2460938,24.1281502 33.2460938,25.1624244 L33.2460938,30.5995463 L30.1493196,30.5995463 L30.1493196,25.1801915 L28.6009325,25.1801915 L28.6009325,30.5995463 L19.3106099,30.5995463 L19.3106099,25.1801915 L17.7622228,25.1801915 L17.7622228,30.5995463 L14.6654486,30.5995463 L14.6654486,25.1624244 Z M11.5686744,32.1479334 L36.342868,32.1479334 L36.342868,35.2447076 L11.5686744,35.2447076 L11.5686744,32.1479334 Z M10.0202873,36.7930947 L37.8912551,36.7930947 L37.8912551,39.8898689 L10.0202873,39.8898689 L10.0202873,36.7930947 Z M39.4396422,46.0834173 L8.47190023,46.0834173 L8.47190023,41.438256 L39.4396422,41.438256 L39.4396422,46.0834173 Z" id="Shape" fill-rule="nonzero"></path>
                    <polygon id="Path" points="6.92351313 15.1156754 8.47190023 15.1156754 8.47190023 6.59954632 6.30733365 6.59954632 10.0202873 2.35622477 13.7332409 6.59954632 11.5686744 6.59954632 11.5686744 12.0189012 13.1170615 12.0189012 13.1170615 8.14793342 17.1460433 8.14793342 10.0202873 0.00415827097 2.89453123 8.14793342 6.92351313 8.14793342"></polygon>
                    <polygon id="Path" points="11.5686744 13.5672883 13.1170615 13.5672883 13.1170615 15.1156754 11.5686744 15.1156754"></polygon>
                    <polygon id="Path" points="11.5686744 16.6640625 13.1170615 16.6640625 13.1170615 18.2124495 11.5686744 18.2124495"></polygon>
                    <polygon id="Path" points="43.3106099 39.8898689 44.858997 39.8898689 44.858997 41.438256 43.3106099 41.438256"></polygon>
                    <polygon id="Path" points="43.3106099 36.7930947 44.858997 36.7930947 44.858997 38.3414818 43.3106099 38.3414818"></polygon>
                    <polygon id="Path" points="42.5364164 16.8802924 37.1612903 24.4059979 40.2138357 24.4059979 40.2138357 29.8253528 41.7622228 29.8253528 41.7622228 22.8576108 40.1699849 22.8576108 42.5364164 19.5449849 44.9032258 22.8576108 43.3106099 22.8576108 43.3106099 35.2447076 44.858997 35.2447076 44.858997 24.4059979 47.9119204 24.4059979"></polygon>
                    <polygon id="Path" points="3.05254539 39.8898689 4.60093248 39.8898689 4.60093248 41.438256 3.05254539 41.438256"></polygon>
                    <polygon id="Path" points="3.05254539 36.7930947 4.60093248 36.7930947 4.60093248 38.3414818 3.05254539 38.3414818"></polygon>
                    <polygon id="Path" points="6.14931958 29.8253528 7.69770668 29.8253528 7.69770668 24.4059979 10.7506301 24.4059979 5.37512603 16.8802924 0 24.4059979 3.05254539 24.4059979 3.05254539 35.2447076 4.60093248 35.2447076 4.60093248 22.8576108 3.00869458 22.8576108 5.37512603 19.5449849 7.74193548 22.8576108 6.14931958 22.8576108"></polygon>
                    <polygon id="Path" points="34.7944809 12.0189012 36.342868 12.0189012 36.342868 6.59954632 34.1783014 6.59954632 37.8912551 2.35622477 41.6042086 6.59954632 39.4396422 6.59954632 39.4396422 15.1156754 40.9880293 15.1156754 40.9880293 8.14793342 45.0170111 8.14793342 37.8912551 0.00415827097 30.765499 8.14793342 34.7944809 8.14793342"></polygon>
                    <polygon id="Path" points="34.7944809 13.5672883 36.342868 13.5672883 36.342868 15.1156754 34.7944809 15.1156754"></polygon>
                    <polygon id="Path" points="34.7944809 16.6640625 36.342868 16.6640625 36.342868 18.2124495 34.7944809 18.2124495"></polygon>
                </g>
            </g>
        </g>
    </g>
</svg>